<svg xmlns="http://www.w3.org/2000/svg" width="192" height="192" viewBox="0 0 192 192" fill="none">
  <rect width="192" height="192" rx="44" fill="#1E40AF"/>
  <circle cx="96" cy="96" r="56" fill="#DBEAFE"/>
  <path d="M96 56C81.6406 56 70 67.6406 70 82C70 96.3594 81.6406 108 96 108C110.359 108 122 96.3594 122 82C122 67.6406 110.359 56 96 56ZM96 116C71.6995 116 52 135.699 52 160H64.5C64.5 142.603 78.603 128.5 96 128.5C113.397 128.5 127.5 142.603 127.5 160H140C140 135.699 120.301 116 96 116Z" fill="#1E3A8A"/>
</svg>
