<svg xmlns="http://www.w3.org/2000/svg" width="512" height="512" viewBox="0 0 512 512" fill="none">
  <rect width="512" height="512" rx="118" fill="#1E40AF"/>
  <circle cx="256" cy="256" r="150" fill="#DBEAFE"/>
  <path d="M256 148C217.34 148 186 179.34 186 218C186 256.66 217.34 288 256 288C294.66 288 326 256.66 326 218C326 179.34 294.66 148 256 148ZM256 312C190.571 312 137.5 365.071 137.5 430.5H171C171 383.574 209.074 345.5 256 345.5C302.926 345.5 341 383.574 341 430.5H374.5C374.5 365.071 321.429 312 256 312Z" fill="#1E3A8A"/>
</svg>
